<svg xmlns="http://www.w3.org/2000/svg" viewBox="0 0 68 68"><path d="M34 0a34 34 0 1 0 34 34A34 34 0 0 0 34 0zM21.85 29.08A8 8 0 0 1 24 26.5a9.63 9.63 0 0 1 3.24-1.68 14.16 14.16 0 0 1 4.15-.59 11.34 11.34 0 0 1 4.8.91v-.73a3.09 3.09 0 0 0-1-2.49 5 5 0 0 0-3.15-.82 10.49 10.49 0 0 0-3.76.66 18.3 18.3 0 0 0-3.63 1.93l-2.49-5.35a19.35 19.35 0 0 1 10.75-3c3.8 0 6.74.85 8.79 2.54s3.08 4.23 3.08 7.61v4.63a2.46 2.46 0 0 0 .46 1.7 2.46 2.46 0 0 0 1.63.57v7.21c-.79.15-1.53.27-2.22.34a16.57 16.57 0 0 1-1.86.11 6.21 6.21 0 0 1-3.52-.83 3.91 3.91 0 0 1-1.56-2.48l-.18-.86A10.75 10.75 0 0 1 33.87 39a9.58 9.58 0 0 1-4.45 1.07 9.08 9.08 0 0 1-3.3-.59 8.24 8.24 0 0 1-2.66-1.61 7.37 7.37 0 0 1-2.38-5.46 7.19 7.19 0 0 1 .77-3.33zM46.92 52.7H21.4v-7.62h25.52zM30 33.25a3.13 3.13 0 0 0 2 .64 5.74 5.74 0 0 0 1.59-.25 5.58 5.58 0 0 0 1.46-.64 3.79 3.79 0 0 0 .81-.79 1.53 1.53 0 0 0 .32-.89v-1.79a13.87 13.87 0 0 0-1.68-.45 8.84 8.84 0 0 0-1.63-.18 4.26 4.26 0 0 0-2.63.77 2.34 2.34 0 0 0-1 1.95 2 2 0 0 0 .76 1.63z" fill="#18a3dd" fill-rule="evenodd"/></svg>